#tb 0: 1/25
0,          2,          2,        1,   152064, 0x89f2e8d5
0,          4,          4,        1,   152064, 0x35b99397
0,          6,          6,        1,   152064, 0x6ef46744
0,          8,          8,        1,   152064, 0xec4d6c1c
0,         10,         10,        1,   152064, 0xad6e0c70
0,         12,         12,        1,   152064, 0x2db534b3
0,         14,         14,        1,   152064, 0xcbd25ddd
0,         16,         16,        1,   152064, 0xd90708b4
0,         18,         18,        1,   152064, 0xc2aa52df
0,         20,         20,        1,   152064, 0xbcfc84dc
0,         22,         22,        1,   152064, 0xa5a6d269
0,         24,         24,        1,   152064, 0x27220ce9
0,         26,         26,        1,   152064, 0xf075ee6d
0,         28,         28,        1,   152064, 0x9fd3c2ac
0,         30,         30,        1,   152064, 0xcba24c2d
0,         32,         32,        1,   152064, 0x41cd9441
0,         34,         34,        1,   152064, 0x0126efa3
0,         36,         36,        1,   152064, 0xf62112af
0,         38,         38,        1,   152064, 0x35aff50f
0,         40,         40,        1,   152064, 0xcb0b276f
0,         42,         42,        1,   152064, 0xc7ef0214
0,         44,         44,        1,   152064, 0x7f78d387
0,         46,         46,        1,   152064, 0x266c673d
0,         48,         48,        1,   152064, 0x1d39c073
0,         50,         50,        1,   152064, 0x6a3ae455
0,         52,         52,        1,   152064, 0xe4ce0230
0,         54,         54,        1,   152064, 0x7f95e87b
0,         56,         56,        1,   152064, 0x7c552236
0,         58,         58,        1,   152064, 0x24c799b9
0,         60,         60,        1,   152064, 0x5042d974
0,         62,         62,        1,   152064, 0xe934a5b8
0,         64,         64,        1,   152064, 0x6d59c884
0,         66,         66,        1,   152064, 0xd00f7fdb
0,         68,         68,        1,   152064, 0x62ac3ebd
0,         70,         70,        1,   152064, 0xb40a6c25
0,         72,         72,        1,   152064, 0x8706188c
0,         74,         74,        1,   152064, 0x7682e339
0,         76,         76,        1,   152064, 0x1061d943
0,         78,         78,        1,   152064, 0x50fa684a
0,         80,         80,        1,   152064, 0xab4b1975
0,         82,         82,        1,   152064, 0x2d043acb
0,         84,         84,        1,   152064, 0xe3c2ec0a
0,         86,         86,        1,   152064, 0xb9bc99dc
0,         88,         88,        1,   152064, 0x051fb857
0,         90,         90,        1,   152064, 0x71d1fe52
0,         92,         92,        1,   152064, 0x4230c694
0,         94,         94,        1,   152064, 0xb412a137
0,         96,         96,        1,   152064, 0x2f50f90d
0,         98,         98,        1,   152064, 0x68a1466f
0,        100,        100,        1,   152064, 0x77e3f47b
0,        102,        102,        1,   152064, 0x4d08de2b
0,        104,        104,        1,   152064, 0x1fc663be
0,        106,        106,        1,   152064, 0x2c8ba712
0,        108,        108,        1,   152064, 0xd50d85b9
0,        110,        110,        1,   152064, 0xe8483437
0,        112,        112,        1,   152064, 0x4e331e4c
0,        114,        114,        1,   152064, 0x0f64a7a0
0,        116,        116,        1,   152064, 0x797b0b8c
0,        118,        118,        1,   152064, 0x1b91e6d8
0,        120,        120,        1,   152064, 0xf3a1f3b6
0,        122,        122,        1,   152064, 0x2b94bd52
0,        124,        124,        1,   152064, 0x1f30962e
0,        126,        126,        1,   152064, 0x853321cf
0,        128,        128,        1,   152064, 0x8266c0ac
0,        130,        130,        1,   152064, 0x25498be0
0,        132,        132,        1,   152064, 0x0f653af9
0,        134,        134,        1,   152064, 0x0a025f7e
0,        136,        136,        1,   152064, 0x1cfbae04
0,        138,        138,        1,   152064, 0x3a874757
0,        140,        140,        1,   152064, 0x2c67006e
0,        142,        142,        1,   152064, 0x1d409bce
0,        144,        144,        1,   152064, 0xfe43121f
0,        146,        146,        1,   152064, 0x43411830
0,        148,        148,        1,   152064, 0x536d26ca
0,        150,        150,        1,   152064, 0x9eb873ea
0,        152,        152,        1,   152064, 0x093f93ec
0,        154,        154,        1,   152064, 0xdf6f0381
0,        156,        156,        1,   152064, 0xa9f4b5e5
0,        158,        158,        1,   152064, 0x08f71ef8
0,        160,        160,        1,   152064, 0x7a68f820
0,        162,        162,        1,   152064, 0xae0c73e7
0,        164,        164,        1,   152064, 0x886ae6c7
0,        166,        166,        1,   152064, 0x9357f433
0,        168,        168,        1,   152064, 0xcc335068
0,        170,        170,        1,   152064, 0x2ea108ab
0,        172,        172,        1,   152064, 0x06d7dcb0
0,        174,        174,        1,   152064, 0x81dc81bc
0,        176,        176,        1,   152064, 0xfb32b626
0,        178,        178,        1,   152064, 0x2787d1c7
0,        180,        180,        1,   152064, 0x69e51118
0,        182,        182,        1,   152064, 0xba15d94d
0,        184,        184,        1,   152064, 0xc41c09cf
0,        186,        186,        1,   152064, 0x7e50e12f
0,        188,        188,        1,   152064, 0x0763ddbe
0,        190,        190,        1,   152064, 0x8a09bb88
0,        192,        192,        1,   152064, 0x530752b7
0,        194,        194,        1,   152064, 0x9b159923
0,        196,        196,        1,   152064, 0xcbb83ed3
0,        198,        198,        1,   152064, 0xdeb5ac0e
0,        199,        199,        1,   152064, 0x189299d4
